<svg xmlns="http://www.w3.org/2000/svg" xmlns:xlink="http://www.w3.org/1999/xlink" aria-hidden="true" role="img"
  class="iconify iconify--logos" width="31.88" height="32" preserveAspectRatio="xMidYMid meet" viewBox="0 0 256 257">
  <path
    d="M126.43,164.45c2.08-1.27,4.2-2.5,6.25-3.82a59.34,59.34,0,0,0,10-7.76c-1.26,1-2.51,2-3.79,3a73.07,73.07,0,0,1-15.29,8.38c-2.73,1.16-5.57,2.06-8.38,3a.85.85,0,0,1-.35,0h0c1.73-.73,3.44-1.48,5.17-2.2a77.69,77.69,0,0,0,19.72-11.94A80.94,80.94,0,0,0,154.55,137a3.92,3.92,0,0,0,.32-.65l.53-.85.29-.27-.13-.08-.13.35-.55.86c-1.54,2-3,3.93-4.63,5.84a75.14,75.14,0,0,1-16,14.4,76.19,76.19,0,0,1-22.92,10.56,81.19,81.19,0,0,1-17,2.66,6.18,6.18,0,0,0-.85.11l0-.38,1.42-.21c2.91-.43,5.82-.79,8.73-1.23a12.1,12.1,0,0,0,1.75-.52l.17-.07-.17.1-.51-.25h0c1.87-.55,3.76-1.06,5.63-1.62.58-.17,1.14-.41,1.71-.62l.53-.16.52-.17.53-.16.52-.16.53-.16,1.22-.46.54-.2.53-.15h.12l-.12,0-.53.14-.54.21-1.22.47-.52.16-.53.17-.52.16-.53.15-.53.16c-1.22.27-2.45.52-3.66.83-11.18,2.77-22.38,2.46-33.59.24a5.84,5.84,0,0,1-.59-.2l-.1-.57-.57.13-.14-.11-.14-.33-.64.24,0,0-.63-.1h0c-.06-.36-1.11-.45-.27-1v0c1.67.29,3.34.68,5,.86,4.62.47,9.25,1.19,13.87,1.2A72.84,72.84,0,0,0,130,155a71.37,71.37,0,0,0,9.66-7.3,62.67,62.67,0,0,0,6.53-7.43c-1.21,1.26-2.41,2.52-3.63,3.77-4.57,4.68-10,8.23-15.61,11.5a2,2,0,0,1-.57.15l.33-.41-.16-.08-.15.49-.9.5.32-.42-.17-.09-.13.51L124,157l.27-.5-.19-.05L124,157a5.07,5.07,0,0,1-.48-.56h0l-.17-.55h0l2.45-1.31h0l-.1.35.28-.16,0,0,.77-.73h0l4.68-3.1a63.44,63.44,0,0,0,9.84-8.23,69.58,69.58,0,0,0,17.31-27.4,71.27,71.27,0,0,0,2-39.49,68.71,68.71,0,0,0-13.45-27.93,71,71,0,0,0-39.18-25.21A75.9,75.9,0,0,0,79.57,21c-3.28.43-6.56.74-9.81,1.27a47.59,47.59,0,0,0-4.93,1.4q-.64.13-1.29.21h0l8.08-3c.46-.17.93-.32,1.39-.48l.53-.21.92-.1-.06-.22-.86.34-.53.09a47.78,47.78,0,0,0-12.66,4.07,76.36,76.36,0,0,0-23,15.78,101.31,101.31,0,0,0-8.87,10.61,115.86,115.86,0,0,0-6.56,10.6,48.23,48.23,0,0,0-4,9.84c-.1.33-.26.65-.39,1l-.26-.06c.12-.52.19-1,.34-1.55a72.74,72.74,0,0,1,5-13.15,9.51,9.51,0,0,0,.36-1l.35-.68.36-.68.08-.08a.29.29,0,0,1,0-.08l0,.17-.36.69-.36.67a58.15,58.15,0,0,0-2.83,5.27c-1.75,4.12-3.77,8.17-4.71,12.6-.43,2.08-.82,4.17-1.25,6.25-.09.46-.23.92-.41,1.66-.41-3.38,2.29-15.7,6.82-24.93a79.91,79.91,0,0,1,14.82-21,60.72,60.72,0,0,0-9.56,11.23,79.75,79.75,0,0,0-11,66.15A11.15,11.15,0,0,1,15,115h0A41.27,41.27,0,0,1,12,103.65c-.06-.4-.17-.79-.26-1.18l-.37.1h0c-.25-1.36-.51-2.72-.75-4.08-.08-.44-.11-.88-.18-1.41-.57,2.06,1.57,14.52,3.37,20a92.71,92.71,0,0,0,8.45,18.59l-.7-.87-.14.07L23,138.1h0l-1.22-.89h0c-.48-.77-1-1.55-1.47-2.33h0l-.5-.91.07.07-.08,0c-.39-.65-.77-1.31-1.16-2l.39.42.1-.11-.43-.22-.8-1.66h0c-1.15-2.34-2.47-4.62-3.44-7A81.89,81.89,0,0,1,8.23,91.16c0-.33,0-.65,0-1,0,0-.1-.1-.34-.36-.18,2.27-.43,4.34-.45,6.41a47.27,47.27,0,0,0,.35,4.9c.11,1.36.26,2.72.37,4.08a1.6,1.6,0,0,1-.26,1c-2-8-2.14-16-1.48-24.2L6,82a6.48,6.48,0,0,0-.22,1c-.18,2.2-.39,4.4-.49,6.61-.17,3.7-.48,7.41-.33,11.1a79.75,79.75,0,0,0,1.29,10.45c.45,2.57,1.31,5.06,2,7.6a7.34,7.34,0,0,1,.16,2.34,34.7,34.7,0,0,1-2.17-4.47,81.22,81.22,0,0,1-3.72-20,7.32,7.32,0,0,0-.33-2,8.48,8.48,0,0,0-.06.87c.25,5.14.83,10.24,1.58,15.34A75.3,75.3,0,0,0,9.9,130.56a19.15,19.15,0,0,1,.69,2.19l0,0c-1-1.93-2.22-3.81-3.08-5.82A89.63,89.63,0,0,1,1,77.48,101.41,101.41,0,0,1,7,55.8a77,77,0,0,1,8-15.61A88.62,88.62,0,0,1,33.41,20.26,90,90,0,0,1,77.83,1,90.51,90.51,0,0,1,134,10.78a89.92,89.92,0,0,1,30.5,26.27,91.18,91.18,0,0,1,18.27,56.73,87.8,87.8,0,0,1-7.33,33.7,5.63,5.63,0,0,1-.37.62H175c.49-1.7,1-3.4,1.44-5.12.21-.82.34-1.64.51-2.47l.17-.51.2-.52,0-.2v.21l-.2.51-.18.52c-1.63,3.69-3.11,7.46-4.91,11.07a92.09,92.09,0,0,1-12.69,19.26A89.58,89.58,0,0,1,100.61,182a91.48,91.48,0,0,1-20.92-.19c-.77-.1-1.51-.3-2.27-.44v-.14c2.86.1,5.71.23,8.57.31,2.21.05,4.42.06,6.62.06.56,0,1.12-.12,2-.21l-.85-.35,0-.17,4.88-.53,0-.18a2.83,2.83,0,0,0-.5,0c-3.14.1-6.29.45-9.42.26-7.4-.41-14.78-1.15-21.87-3.41C63,175.7,59.23,174,55.43,172.5v-.2a.26.26,0,0,1,.16-.09l.53.26a2.86,2.86,0,0,0,.52.17l.52.17.3,0,0-.19-.26.18-.52-.18-.51-.17-.54-.26-.68-.36h0l-.55-.19,0,0-.71-.37h0l-.64-.5-.59-.05h0l-.66-.52-.53-.73h0l.38-.36h0l.25.13,0-.31h0l.67.36h0l.39.41h0l.86.18.09.28-.11-.28.7.37h0l.36.38,0,0,1.23.56h0l1.23.56,0,0,.54.2h0l.54.19h0l.2-.19h0c2.75.9,5.48,1.88,8.26,2.69a59.54,59.54,0,0,0,14.66,2.78,107.57,107.57,0,0,0,19.82-.69,11.16,11.16,0,0,0,1.4-.39l.17-.05-.17.08-5.48.34c-9,.53-17.92.26-26.51-2.34-9.57-2.9-18.91-6.56-27.15-12.47a4.09,4.09,0,0,1-1.19-1.26c.64.4,1.27.83,1.92,1.21l8.34,4.9a5.25,5.25,0,0,0,1,.35l.68.37.53.26.07.06-.07,0-.55-.26c-.18-.08-.45-.24-.67-.37L50.17,165h0l.18-.21c.23.13.46.28.69.42l.68.35.69.37.69.36,1.87.87,1.08.56.68.38.53.21,1.19.53.52.22.52.17,1.71.71.52.24.52.18.5.14.53.25.51.19.52.2c.28,0,.58.06.85.07l.53.27.09,0h-.09l-.53-.27-.85-.07-.52-.2-.52-.19-.52-.25-.5-.14-.52-.18-.53-.23-1.7-.72-.52-.17-.53-.22-1.19-.53-.52-.21-.68-.38c-.4-.19-.81-.36-1.21-.54L53,166.32l-.69-.36-.68-.36-.69-.36-.69-.42-1.55-.9,0,0L47.12,163h0c-2.31-1.66-4.65-3.28-6.93-5-1-.78-2-1.69-3-2.54h0c1.57,1.16,3.13,2.33,4.71,3.46.79.56,1.65,1,2.47,1.55h0l1.92,1.25h0l.88.54h0l1.55.91h0l1.54.9h0l1,.36a.46.46,0,0,0-.12.12l.06.06-.06-.18c.23.13.47.25.71.37a.35.35,0,0,0,0,.11L52,165l-.07-.18.71.36a.5.5,0,0,0,0,.12l.06.06-.06-.18.71.36v.11l0-.1.22-.16v0q.51.34,1,.72a.17.17,0,0,1,0,.09l0-.09.23-.17,0,0,.52.55.34.36.16-.16.21-.17,0,0,.52.55.35.36.52-.16h0l.35.37L58,168l.49.18,0,0,.55.2h0l.55-.17h0l.36.38.33.35.52.18.52.19.52.2h0l.56.19h0l.55.2,0,0,.55.2h0l.54.18.51.19.52.19.44.15.21-.2a.46.46,0,0,1,.18-.13h.47l.41.22.31.32h0l.26.32.23-.21a2.88,2.88,0,0,0-.33-.28h0l-.5-.13-.35-.29v-.21c1.9.5,3.78,1,5.7,1.46a85,85,0,0,0,38.49-.3,80.07,80.07,0,0,0,28-13,1.84,1.84,0,0,0,.65-.76c-1.58.92-3.15,1.86-4.75,2.77-2.26,1.29-4.53,2.57-6.82,3.82a4.36,4.36,0,0,1-1.12.27Zm-66,9.7-.54-.27-.49-.11a4,4,0,0,1-.52-.18l-.51-.17h0l.52.17.51.17.5.11.54.28.51.18.52.19.09,0h-.09l-.51-.19Zm8.42-2.61.08.05h-.13l.06-.06v-.08ZM118.32,163l-.08,0,.09,0,.08,0Zm-8.19,15.26-.14,0,.14,0h.11ZM10.41,89.55l-.27,3.91h-.06c.14-1.53.27-3.06.34-3.91Zm-.25,6.56h.25l-.1-1.2-.18,0ZM39.63,32.18l0,0,.65-.61,0-.05ZM140.77,156.53l-.06-.06-.48.45.06.06Zm6.62-17.5,0,0-.29.28,0,0ZM103.17,179.6a.13.13,0,0,0-.11,0s0,.05-.06.09.08,0,.12,0,0-.05,0-.08Zm-2.1.26-.22,0s0,.08.05.08h.21a.42.42,0,0,1,0-.1ZM124.87,156l.07.19a.58.58,0,0,0,.14-.13s0-.1,0-.1a.71.71,0,0,0-.18.08Zm-25,24.09-.13-.14s-.07,0-.11,0,0,.15,0,.15h.25Zm27.66-25.42.1,0,0-.21h-.1Zm1-.57V154l-.08.15Zm27.81-19.9.06-.06-.07,0ZM21,133.82l-.07.06H21Zm86.62,44.94,0,.07.08,0Zm-.9.18,0,.07.08,0Zm53-50.73,0,.09.09,0Zm.36-.67,0,.08.08,0Zm-54.23,51.63,0-.07-.07,0Zm-.88.16,0-.07-.07,0Zm-.84.12,0-.07-.08,0Zm-2.06.24-.13.06,0,.06Zm-6.93,1.5.08,0-.11,0Z">
  </path>
  <path
    d="M122.5,50.74a1.71,1.71,0,0,1-.64.45,1.82,1.82,0,0,0-.63.46,2.69,2.69,0,0,0-.37,1.09,3.62,3.62,0,0,0,.91,1.27,1.52,1.52,0,0,0,1.46.55,4.12,4.12,0,0,1,.82,1.36c.06.3-.34.58-1.18.82a3.8,3.8,0,0,1-1.19.18,3,3,0,0,0-1.36.37,2.7,2.7,0,0,1-1-.19l-1-.36a1.7,1.7,0,0,0-1.09,0,3,3,0,0,1-1.46,0q0,.18-.36.18h-.91a3,3,0,0,1-1.27.37,7.92,7.92,0,0,0-1.46.18l-.54.27a1.34,1.34,0,0,1-.55.09q.18.18-.18.18a2.6,2.6,0,0,1-2.37.37l-.54.18H107a3.88,3.88,0,0,1-1.45.73h-1.28a4.07,4.07,0,0,1-1.45.54c-.61.12-1.09.25-1.46.36a7.46,7.46,0,0,1-1.54.19,8.19,8.19,0,0,0-1.55.18,6.8,6.8,0,0,1-1.18.27,3.3,3.3,0,0,0-1,.27.74.74,0,0,1-.18.55,1.92,1.92,0,0,1-.82.73,2.34,2.34,0,0,0-.82.54c-.49.12-1.33.31-2.55.55a.73.73,0,0,1-.54.18A10.9,10.9,0,0,0,89.4,64l-1.09.37-.18.18a5.81,5.81,0,0,0-1.64.36h-.18a7,7,0,0,1-2.55,1.19,7.07,7.07,0,0,0-2.18.81c-.85.25-1.7.52-2.55.82a13.15,13.15,0,0,0-2.18,1l-1.45.73-.55.27L74.3,70a7.49,7.49,0,0,1-1,.81c-.42.31-.82.58-1.18.82a5.31,5.31,0,0,0-1.64,1.64,1.38,1.38,0,0,1-.54.18,1.47,1.47,0,0,0-.55.18c-.24.13-.45.25-.63.37a7.32,7.32,0,0,1-.64.36,1.56,1.56,0,0,1-.73.46,1.59,1.59,0,0,0-.72.45,10.28,10.28,0,0,1-1.46,1.09,1,1,0,0,0-.45.37,1.07,1.07,0,0,1-.46.36,4,4,0,0,1-.64.55,4.36,4.36,0,0,0-.63.54,4.19,4.19,0,0,1-.91.73c-.37.36-.73.7-1.09,1a10,10,0,0,0-.91.82c0,.12-.18.36-.55.72a.17.17,0,0,0-.18.19L59,82c-.73.49-.85,1-.37,1.45v.19a.22.22,0,0,0,0,.36v.36a.52.52,0,0,1-.18.37v.36c0,.12-.12.25-.36.37v.36a.29.29,0,0,0,.18.27.3.3,0,0,1,.18.27v.37q-.36.36-.36.54a.81.81,0,0,1,.36.1.8.8,0,0,0,.36.09q.18.18,0,.54l.37.18.18-.18v.18c.73.25.85.61.36,1.09a4.81,4.81,0,0,1,1.19,1.28c.3.48.57.91.81,1.27v.37c0,.12.06.18.19.18.48.48.93,1,1.36,1.45s.94,1,1.55,1.64a1,1,0,0,0,.36.45c.12.07.18.22.18.46a3.22,3.22,0,0,0,1.28.36c-.13.12,0,.25.36.37a2,2,0,0,1,1.27,2l.18.36a1.47,1.47,0,0,1,.55.91c.36.36.55.61.55.73a1.6,1.6,0,0,1,.18.63,1.45,1.45,0,0,0,.18.64c.85.61,1.27,1.18,1.27,1.73a9,9,0,0,0,.18,1.73c-.12.72-.21,1.48-.27,2.27a5.77,5.77,0,0,0,.27,2.27,2.73,2.73,0,0,0-.72,1.28.71.71,0,0,0,0,.72.79.79,0,0,1,0,.73.37.37,0,0,1-.09.27c-.07.07,0,.22.09.46l-.19.36a.54.54,0,0,1,.37.18.74.74,0,0,1-.18.55,1.43,1.43,0,0,0-.19.45,1.49,1.49,0,0,1-.18.46,6,6,0,0,0-.36,1.45l-.55.73-.54.55.18.18a2.21,2.21,0,0,1-.55.91l-.72.73c-.25.12-.37.24-.37.36a.52.52,0,0,1-.18.36l-.73.91-.18.37-.64.63-.63.64a1.89,1.89,0,0,0,.18,1.09c-.61.25-.85.43-.73.55l-1.09,1.09a20.92,20.92,0,0,0-2,1.82,4.16,4.16,0,0,0-1.18.82l-.82.81a7.57,7.57,0,0,1-1.45,2l-2.37,1.82a2.47,2.47,0,0,1-.82,1.09,11.13,11.13,0,0,1-1.18.91,5.29,5.29,0,0,0-.54,1,1.87,1.87,0,0,1-.73.82,1.23,1.23,0,0,1-1.09.55l-5.1,4c-1.7,1.33-3.33,2.61-4.91,3.82-.85.48-1.63.91-2.36,1.27a8.47,8.47,0,0,0-2.18,1.64,2.72,2.72,0,0,1-.82.82,6.76,6.76,0,0,0-1,.82,6.48,6.48,0,0,1-1.82.91.74.74,0,0,0-.55.18l-.36.18a2.77,2.77,0,0,1-1.27.73,7,7,0,0,0-1.46.54c-.49.49-.67.85-.55,1.09a2.69,2.69,0,0,1-1.09.37l-.36.18a3.6,3.6,0,0,1-2.27,1.54,23,23,0,0,0-2.46.64h-.54a13.91,13.91,0,0,1-1.82,1.55,7.45,7.45,0,0,1-2.37,1l-1.27,1.27a3.29,3.29,0,0,0-.91.91c-.85.85-1.64,1-2.36.55s-.85-.85-.37-1.46a3,3,0,0,1,1-1.36,9.58,9.58,0,0,0,1.18-1l.37-.37.36.18q-.9,2.37-2.73,2.55a1.51,1.51,0,0,0,1.09.37c.25-.13.34-.22.28-.28s0-.15.09-.27a1.6,1.6,0,0,1,.91-1.09,10,10,0,0,1,.91-.82,11.52,11.52,0,0,0,.91-.82,4.73,4.73,0,0,1,1.27-1.18,8.4,8.4,0,0,0,1.46-1.18l.18-.19v-.27q0,.46.18.27a.43.43,0,0,1,.36-.45,1.13,1.13,0,0,0,.55-.27A1.82,1.82,0,0,1,22,154q.28-.09-.09-.45-.18-.36-.36-.18a2,2,0,0,1-.55.36,12.25,12.25,0,0,0-.9,1,1.15,1.15,0,0,1-.92.45.69.69,0,0,0-.18-.54,5.5,5.5,0,0,1-1.27,1.64c-.24.12-.66-.12-1.27-.73-.24-.24-.24-.61,0-1.09s.24-.94.36-1.37a.83.83,0,0,0-.36-1l-.18.18c-.85,0-1.25-.21-1.19-.63a2.94,2.94,0,0,1,.46-1.18l1.63-1.64a4.51,4.51,0,0,0,1-.91,5,5,0,0,1,1-.91,12,12,0,0,1,1.37-1.18c.43-.3.88-.64,1.36-1a3.1,3.1,0,0,1,.73-.55h.18c.12,0,.19,0,.19-.09s.06-.09.18-.09c.61-.61,1.24-1.21,1.91-1.82s1.36-1.21,2.09-1.82,1.15-.91,1.63-1.27,1-.79,1.64-1.27a12.07,12.07,0,0,0,1.82-1.46,11.13,11.13,0,0,0,1.18-.91c.43-.36.82-.66,1.18-.91s.76-.51,1.19-.82.82-.57,1.18-.81c.6-.37,1.15-.73,1.64-1.1l1.45-1.09a.61.61,0,0,0,.18-.45.62.62,0,0,1,.19-.46,6.78,6.78,0,0,0,1.63-.91c.49-.36,1-.72,1.64-1.09a6.74,6.74,0,0,0,1.09-.91,8,8,0,0,1,1.09-.91c.61-.48,1.18-1,1.73-1.45a12.73,12.73,0,0,0,1.54-1.64l2.73-1.63c.49-.37.94-.73,1.37-1.1s.82-.72,1.18-1.09a10.72,10.72,0,0,0,1.27-1.45,1.84,1.84,0,0,0,.46-.64,1.88,1.88,0,0,1,.45-.64,4.23,4.23,0,0,0,.64-.81,3.93,3.93,0,0,1,.64-.82l.54-1.09a1.16,1.16,0,0,0,.36-.82A1.71,1.71,0,0,1,59,112h-.19l.55-.55h-.18v-.36a.22.22,0,0,1,0-.36c.12-.25,0-.49-.27-.73a7.44,7.44,0,0,1-.82-.73,7.11,7.11,0,0,1-.37-.82,2.54,2.54,0,0,0-.54-.82,5,5,0,0,0-.64-.54c-.18-.12-.09-.42.27-.91v-.36l-.72-.19A2.74,2.74,0,0,0,54.48,104c-.36-.24-.49-.43-.36-.55A12.35,12.35,0,0,0,53,101.94a5.58,5.58,0,0,1-.92-1.55v.36a1.3,1.3,0,0,1-1.27-.72.84.84,0,0,1-.54-.91A1.17,1.17,0,0,0,49.57,98v-.55c-.37-.12-.55-.24-.55-.36-.24-.12-.36-.21-.36-.28s-.12-.15-.36-.27-.16-.21-.1-.27,0-.15-.09-.28l-.72-1.45L47,94.21,46.84,94l-.18-.72-.18-.91a.58.58,0,0,1-.18-.73,11,11,0,0,1-.55-1.46,2.94,2.94,0,0,1-.36-1.27,5.23,5.23,0,0,1-.19-1.36V83.84a7.27,7.27,0,0,1,.19-1.46,3.17,3.17,0,0,0,.27-.91,3.2,3.2,0,0,1,.27-.9c.12-.25.24-.52.37-.82a5,5,0,0,1,.54-1,3.08,3.08,0,0,0,.46-1.09,1.61,1.61,0,0,1,.45-.91l1.09-1.64,1.09-1.64c.24-.24.49-.48.73-.73l.73-.72a11,11,0,0,1,1.09-1.28,7.41,7.41,0,0,0,.91-1.09,6.1,6.1,0,0,0,1.09-1,9.87,9.87,0,0,1,.73-.82A4.29,4.29,0,0,0,57,66a3,3,0,0,0,1.27-1.27,7.26,7.26,0,0,0,1.55-.82,7.6,7.6,0,0,1,1.54-.82,2.81,2.81,0,0,1,1.09-.45,1.61,1.61,0,0,0,.91-.45,17.54,17.54,0,0,0,2.18-1.46l1.28-.64,1.27-.63c.48-.24.94-.46,1.36-.64s.88-.39,1.37-.64a1.61,1.61,0,0,1,.91-.45,1.67,1.67,0,0,0,.91-.45,14.28,14.28,0,0,1,1.54-.55,14.34,14.34,0,0,0,1.55-.55l1.64-.54c.6-.24,1.12-.43,1.54-.55s.94-.3,1.55-.54S81.61,54.13,82,54a14.34,14.34,0,0,0,1.55-.55l1.09-.36a7.19,7.19,0,0,0,.91-.36,17.82,17.82,0,0,1,1.91-.64,16.46,16.46,0,0,0,1.91-.64c.24-.11.73-.3,1.46-.54a5,5,0,0,1,1.27-.46A4.65,4.65,0,0,0,93.4,50a9.56,9.56,0,0,0,1.18-.36c.3-.12.64-.25,1-.37a2.85,2.85,0,0,1,1.1-.45,7.18,7.18,0,0,0,1.45-.46,2.84,2.84,0,0,1,1.18-.45,6.61,6.61,0,0,0,1.55-.46,1.61,1.61,0,0,1,.91-.45,4.4,4.4,0,0,0,1.27-.46,4.51,4.51,0,0,1,1.36-.45,3.3,3.3,0,0,0,1-.27c.37-.12.7-.21,1-.28a5.09,5.09,0,0,1,1-.09A14.79,14.79,0,0,1,109,45.1c.61,0,.91.18.91.54l2-.72H113a3.52,3.52,0,0,0,1.1.18,2,2,0,0,1,.9-.18,2,2,0,0,0,.91-.18,1.12,1.12,0,0,0,.55-.1,1.27,1.27,0,0,1,.55-.09l1.27-.18a3.74,3.74,0,0,0,2,.55,8.69,8.69,0,0,1,2.36.36V45.1a4.1,4.1,0,0,1,2-.18,1.67,1.67,0,0,1,1.73.27,1.63,1.63,0,0,0,1.73.27,7.42,7.42,0,0,1,.73.91,10,10,0,0,1,.54.91c.24.49.06.91-.54,1.27a2.62,2.62,0,0,1-2,1.1H124.5C124.14,49.89,123.47,50.25,122.5,50.74Z">
  </path>
  <path
    d="M144.87,53.28a.85.85,0,0,1,1-.09c.42.18.52.64.27,1.37a3.44,3.44,0,0,0-.81,1.72,3.54,3.54,0,0,1-.82,1.73,2.59,2.59,0,0,0-.18,1.09,5.14,5.14,0,0,1-.37,1.09,1.44,1.44,0,0,1-.18.91,3.8,3.8,0,0,0-.18,1.19,2.06,2.06,0,0,1-.37,1.18v.36c-.36.37-.42.67-.18.91a6.11,6.11,0,0,1-.54,2.37V68a.33.33,0,0,0,.09.27.37.37,0,0,1,.09.27,2.8,2.8,0,0,1-.27,1.27,12.5,12.5,0,0,1-.64,1.1l-.18.54V72c.24.36,0,1-.73,2a4.56,4.56,0,0,1-.36,3.09A8.83,8.83,0,0,0,139.6,80l-1.09,1.64.36.36a1.83,1.83,0,0,1,.18.82,1.86,1.86,0,0,0,.18.82l-.63,1.27A12.36,12.36,0,0,1,138,86v.55a1.6,1.6,0,0,0-.18.72,1,1,0,0,1-.37.73l-.36.91-.18.36c.24.25.18.67-.18,1.28h-.19A11.36,11.36,0,0,1,136,93c-.25.67-.55,1.43-.91,2.28a10.16,10.16,0,0,1-.36,2,5.6,5.6,0,0,0-.73,2l-1.09,4.91a2,2,0,0,1,0,2c.12.36-.07.73-.55,1.09a5.72,5.72,0,0,0-.18,1.36A5.67,5.67,0,0,1,132,110l-.18,1.45a3.27,3.27,0,0,1-1.1,1.64l-.18,3.27a3.31,3.31,0,0,0-.36,1.46,3.2,3.2,0,0,1-.36,1.45,2.29,2.29,0,0,1-.37,1.28,3.84,3.84,0,0,0-.54,1.27,3.21,3.21,0,0,0-.19,1.09,5.44,5.44,0,0,1-.18,1.28,3.17,3.17,0,0,0-.54,2.18,4.3,4.3,0,0,0-.55,1.09,2.21,2.21,0,0,1-.55.91.37.37,0,0,1-.09.27.38.38,0,0,0-.09.27v.37a1.72,1.72,0,0,1-.72,1.45l-.19.37-.36,4.73-.36.72v.64c0,.18-.19.4-.55.64a.59.59,0,0,1-.18.72V139a27.61,27.61,0,0,1-1,4.45c-.31.79-.58,1.25-.82,1.37a.61.61,0,0,1-.64,0q-.27-.18-.63.36l-.19.37c-.24,1-.51,1.45-.81,1.45s-.7-.73-1.19-2.18a.53.53,0,0,1,.19-.37l-.19-.18q-.36-.18-.09.18c.19.25.28.25.28,0a1.16,1.16,0,0,1,0-1.27.78.78,0,0,1,.18-.55c.12-.11.06-.18-.18-.18s-.49.18-.73.91a5.09,5.09,0,0,0,.09,1c.06.31-.21.58-.82.82h-.18a8.3,8.3,0,0,1-.36,2c-.13.25-.55.37-1.28.37-.12,0-.3-.25-.54-.73a4.47,4.47,0,0,1-.55-1.09c-.12-.37-.48-.43-1.09-.18v.36c-.73.61-1.12.73-1.18.36a2.34,2.34,0,0,1,.45-1.45,8.33,8.33,0,0,1,.55-4.37,10,10,0,0,1,.63-2.18c.31-.73.58-1.39.82-2,0-.12.06-.94.19-2.46a8,8,0,0,1,.36-2.45l.18-.36.55-1.1a2,2,0,0,0,.18-.91l.73-2.18a8,8,0,0,1,.27-2.09c.18-.67.39-1.42.64-2.27a14,14,0,0,1,1.09-4.37,14.46,14.46,0,0,1,.54-2.18,7,7,0,0,0,.37-2.18,13,13,0,0,0,.54-1.64,6.8,6.8,0,0,0,.18-1.64.61.61,0,0,0-.27-.54c-.18-.12-.21-.3-.09-.55a28.66,28.66,0,0,0,2-6l.91-2.91a2.61,2.61,0,0,1,.91-1.82,2.09,2.09,0,0,0-.73.73,3,3,0,0,1-.54.73,6.8,6.8,0,0,1-.1,1.09,1.88,1.88,0,0,1-.81,1.09,3.47,3.47,0,0,1-.37.91q-1.45,2.73-2.82,5.54t-2.82,5.73c-.48.73-1,1.43-1.54,2.1a6,6,0,0,0-1.18,2.45,17.67,17.67,0,0,1-.91,2.18,2.25,2.25,0,0,0-.55,1,2.22,2.22,0,0,1-.54,1l-.37.37-.54.36a12.71,12.71,0,0,1-.73,1.27,10.61,10.61,0,0,0-.73,1.28q.18.36-.09.54a.63.63,0,0,0-.27.55.49.49,0,0,1-.55.55l-.18.54a4,4,0,0,1-1.46,2.55,7.15,7.15,0,0,0-1.81,2.18l-.73.36a16.63,16.63,0,0,1-2.18,4,2.44,2.44,0,0,0-.19,1.1,6.76,6.76,0,0,1-.72,1.18c-.25.3-1.46.33-3.64.09a3.87,3.87,0,0,1-1.09-.73c-.25-.24-.61-.24-1.09,0v.36c-.25.61-.52.76-.82.46a1.57,1.57,0,0,1-.46-1.18,25.39,25.39,0,0,1,.18-8,.56.56,0,0,1,.19-.37.52.52,0,0,0,.18-.36c0-.24.06-.37.18-.37a80.63,80.63,0,0,1,.46-8.54,76.93,76.93,0,0,1,1.36-8.55v-1.64a4.56,4.56,0,0,0-.36-1.64,1.06,1.06,0,0,0,.54-.91,2.27,2.27,0,0,0,0-1.27q-1.81,4-3.36,8.19c-1,2.79-2.16,5.57-3.37,8.36h.18a5.78,5.78,0,0,0-.72,1.91,8.17,8.17,0,0,1-.73,2.09h0A29,29,0,0,1,87.4,132a30.38,30.38,0,0,1-1.46,3.54,2.27,2.27,0,0,0-.09,1.09c.06.37-.15.55-.63.55L84.49,139a2.52,2.52,0,0,0-.82,1.45A4.22,4.22,0,0,1,83,142l-.36,1.82c-.25.36-.58.82-1,1.36L80.3,147a.54.54,0,0,0,.37.18c.12.37-.12.34-.73-.09s-1-.51-1.27-.27a1.07,1.07,0,0,1-.18.73.21.21,0,0,0,0,.36.23.23,0,0,1,0,.36,1.78,1.78,0,0,0-1.28,1.64,4.63,4.63,0,0,0-1.18.64c-.43.3-.76.15-1-.46a1.18,1.18,0,0,1-.09-1.18,1.64,1.64,0,0,0,.09-1.18,2.39,2.39,0,0,1,.36-1.18,6.16,6.16,0,0,0,.55-1.19q0-.9.45-.81c.3.06.21,0-.27-.28a8.83,8.83,0,0,1-1.09.64,2.14,2.14,0,0,0-.91,1.18c-.48.25-.82.27-1,.09s0-.63.45-1.36a9.34,9.34,0,0,1-.18-2A4.66,4.66,0,0,1,74.48,141a.82.82,0,0,0,.19-.91,1.57,1.57,0,0,1,0-1.09v-.37a4.64,4.64,0,0,1,.54-.91,3.56,3.56,0,0,0,.55-2.18,2.23,2.23,0,0,0-.18-.91.29.29,0,0,1,.18-.27.29.29,0,0,0,.18-.27,5.44,5.44,0,0,0,.18-1.28,1.26,1.26,0,0,1,.36-.91l.37-.72.18-.37a11.81,11.81,0,0,0,.73-2.18c.48-1,.94-1.91,1.36-2.82a16.87,16.87,0,0,1,1.55-2.64l.36-1.63a.31.31,0,0,0-.18-.28.28.28,0,0,1-.18-.27,4.35,4.35,0,0,1,.09-.82,4.19,4.19,0,0,0,.09-.82,3.94,3.94,0,0,0,.91-2.18.37.37,0,0,1,.09-.27.37.37,0,0,0,.09-.27A5.77,5.77,0,0,0,83,115.12l.18-.91.19-.36c-.49-.48-.31-.91.54-1.27.24-1,.46-1.79.64-2.46a7.39,7.39,0,0,1,1.18-2.27,16.21,16.21,0,0,0,1-2,5.36,5.36,0,0,0,.46-2,48.29,48.29,0,0,0,1.63-5.1c.24-1,.43-1.63.55-2a1.51,1.51,0,0,1,.36-1.09A54.14,54.14,0,0,0,91.67,90a33.31,33.31,0,0,1,2.27-5.82,8.11,8.11,0,0,1,.73-2.36,7.53,7.53,0,0,0,.73-2.37c.24-1,.42-1.75.55-2.36a3.79,3.79,0,0,0,.45-1.27c.18-.73.36-1.52.55-2.37s.36-1.64.54-2.36.39-1.15.64-1.28l.54-.54v-.37A3,3,0,0,1,99,67.38c.24-.42.48-.88.73-1.37a1.84,1.84,0,0,0,0-1.09v-.54L100,64a17.85,17.85,0,0,1,1.27-2.72,28,28,0,0,1,1.64-2.55l.54-.36a6.76,6.76,0,0,1,.55-2.73,25.2,25.2,0,0,1,1.27-2.55.61.61,0,0,1-.09-.82c.18-.3.33-.57.46-.82a1.74,1.74,0,0,1,.09-.63,2,2,0,0,0,.09-.64V49.1l.36-.18-.18-.18.54-.19H108l-.36.19.36.18v.36c.36-.36.61-.54.73-.54.6-.12.91-.12.91,0a2,2,0,0,1,.81,1.82,9.51,9.51,0,0,1-.45,2.18,10.18,10.18,0,0,1,1.27,1.54,1.68,1.68,0,0,0,1.46.82l1.09-.73c.36-.24.42-.66.18-1.27,1.09-.85,1.64-.66,1.64.55a10.12,10.12,0,0,1-.36,3.82,3,3,0,0,0-.19,1,3.26,3.26,0,0,1-.18,1,.52.52,0,0,0-.18.36.73.73,0,0,1-.09.46q-.09.09.27.45a8.74,8.74,0,0,0-.18,2,1.46,1.46,0,0,0-.18.91.37.37,0,0,1-.09.27.37.37,0,0,0-.09.28,2.34,2.34,0,0,1,0,2.18l-.55.54v.37a4.91,4.91,0,0,1,.18,2.18,13.08,13.08,0,0,1-.27,2.18c-.18,1-.43,2-.73,3.19s-.58,2.21-.82,3.18a10.07,10.07,0,0,0-.36,2.18L111,81.84a.33.33,0,0,1,.37.36,1.08,1.08,0,0,1,.36.73,1.08,1.08,0,0,0,.36.73,4.42,4.42,0,0,0-.54,1.09,4.65,4.65,0,0,1-.55,1.09.37.37,0,0,0,.09.27.38.38,0,0,1,.09.27,3.09,3.09,0,0,0-.18,1.46l-.73.73v.36a1.05,1.05,0,0,0,.19.64c.12.18.06.39-.19.63a12.13,12.13,0,0,1-.91,4.37,6.63,6.63,0,0,0-.18,4,10,10,0,0,0-.72,2.37c-.13.72-.25,1.51-.37,2.36a1.74,1.74,0,0,0,.37,1.82,1.46,1.46,0,0,1-.46.54,3.71,3.71,0,0,0-.45.37,1.3,1.3,0,0,1,.18,1.09,1.78,1.78,0,0,0,.36-1.27,5.93,5.93,0,0,0,1-1.73c.18-.55.39-1.12.64-1.73.24-.24.36-.42.36-.55a1.43,1.43,0,0,1,.18-.54q3.28-5.08,6.37-10.91,2.55-3.83,4.82-7.92a68.17,68.17,0,0,0,3.91-8.27,5.44,5.44,0,0,0,1.27-1.82c.24-.6.49-1.27.73-2,.61-1.33,1.24-2.67,1.91-4s1.18-2.49,1.55-3.46a9.29,9.29,0,0,0,.63-1.09.89.89,0,0,1,.82-.54l.55-1.64c.36-.48.69-1,1-1.46a4.86,4.86,0,0,0,.63-1.63l.91-1.82a6.09,6.09,0,0,0,1.28-1.28.56.56,0,0,0-.19-.36,2.09,2.09,0,0,1-.36-.54c.24-.12.51-.25.82-.37a2.54,2.54,0,0,0,.82-.54,2.26,2.26,0,0,1,.18-.82c.12-.3.24-.58.36-.82a1.31,1.31,0,0,1,.73-1.46,2.12,2.12,0,0,0,1.09-1.45l1.18-.55c.55-.24.94-.06,1.19.55a2.21,2.21,0,0,1,.18,2.27,18.14,18.14,0,0,1-1.27,2.28,10.88,10.88,0,0,0,.18,1.91,1.74,1.74,0,0,0,.91,1.36,4.21,4.21,0,0,1,1.27-.55A1.62,1.62,0,0,0,144.87,53.28ZM99.4,138.22a1.47,1.47,0,0,1,.55-.91v-.18c-.13,0-.18-.06-.18-.18s0-.24.09,0,.09.24.09,0v-.55a1.82,1.82,0,0,0-.18-.73c0-.12.11-.24.36-.36-.49.61-.79,1-.91,1.09.48.49.36,1-.36,1.64h-.37Zm6-78.57a.6.6,0,0,0,.19-.73l.18-.73c0-.11,0-.18-.09-.18s-.09.07-.09.18a1.12,1.12,0,0,1-.28.55,4.81,4.81,0,0,0-.45.73c-.25.61-.31.91-.18.91A.64.64,0,0,0,105.4,59.65Zm2-9.82a1.65,1.65,0,0,0,.19-.73c-.49,0-.73.12-.73.36A.78.78,0,0,1,107,50c.36.36.3.73-.18,1.09a2.6,2.6,0,0,1-.37,1.36,1.07,1.07,0,0,0,0,1.19,2.46,2.46,0,0,1-.27,1.72,3.57,3.57,0,0,0-.45,1.73,15.78,15.78,0,0,1,1.45-2.91V54a1.74,1.74,0,0,1-.73-1.45,10.61,10.61,0,0,0,.73-1.28.52.52,0,0,1,.18-.36.23.23,0,0,0,0-.36Z">
  </path>
</svg>
